<?xml version="1.0" encoding="UTF-8"?>
<svg id="Layer_2" data-name="Layer 2" xmlns="http://www.w3.org/2000/svg" xmlns:xlink="http://www.w3.org/1999/xlink" viewBox="0 0 132 142.21">
  <defs>
    <style>
      .cls-1 {
        fill: #916a4d;
      }

      .cls-1, .cls-2, .cls-3, .cls-4, .cls-5, .cls-6, .cls-7 {
        stroke-width: 0px;
      }

      .cls-2 {
        fill: #5d5d5d;
      }

      .cls-3 {
        fill: #9b7559;
      }

      .cls-4 {
        fill: #42403f;
      }

      .cls-8 {
        filter: url(#drop-shadow-1);
      }

      .cls-5 {
        fill: #8e83c0;
      }

      .cls-6 {
        fill: #af8969;
      }

      .cls-7 {
        fill: #ffca62;
      }
    </style>
    <filter id="drop-shadow-1" filterUnits="userSpaceOnUse">
      <feOffset dx="4" dy="4"/>
      <feGaussianBlur result="blur" stdDeviation="2"/>
      <feFlood flood-color="#000" flood-opacity=".22"/>
      <feComposite in2="blur" operator="in"/>
      <feComposite in="SourceGraphic"/>
    </filter>
  </defs>
  <g id="objects">
    <g class="cls-8">
      <circle class="cls-7" cx="66" cy="76.21" r="66"/>
      <path class="cls-2" d="M27.52,48.26c0,3.73,3.02,6.76,6.76,6.76s6.76-3.02,6.76-6.76-3.02-6.76-6.76-6.76-6.76,3.02-6.76,6.76Z"/>
      <circle class="cls-2" cx="34.15" cy="32.88" r="10.63" transform="translate(-13.25 33.78) rotate(-45)"/>
      <path class="cls-2" d="M105.79,48.26c0,3.73-3.02,6.76-6.76,6.76s-6.76-3.02-6.76-6.76,3.02-6.76,6.76-6.76,6.76,3.02,6.76,6.76Z"/>
      <circle class="cls-2" cx="99.15" cy="32.88" r="10.63" transform="translate(44.47 121.89) rotate(-76.78)"/>
      <circle class="cls-2" cx="46.65" cy="18.38" r="13.13" transform="translate(.67 38.37) rotate(-45)"/>
      <circle class="cls-2" cx="68.4" cy="13.13" r="13.13" transform="translate(10.75 52.21) rotate(-45)"/>
      <circle class="cls-2" cx="90.53" cy="18.01" r="12.01" transform="translate(13.78 69.29) rotate(-45)"/>
      <path class="cls-5" d="M66.19,142.21c17.59,0,33.55-6.89,45.38-18.11-6.98-11.71-19.76-19.56-34.38-19.56h-22c-14.62,0-27.41,7.85-34.38,19.56,11.83,11.21,27.8,18.11,45.38,18.11Z"/>
      <path class="cls-1" d="M73.69,104.83c0,4.36-3.53,7.89-7.89,7.89h0c-4.36,0-7.89-3.53-7.89-7.89v-19.23c0-4.36,3.53-7.89,7.89-7.89h0c4.36,0,7.89,3.53,7.89,7.89v19.23Z"/>
      <circle class="cls-3" cx="36.65" cy="59.02" r="10.22"/>
      <circle class="cls-3" cx="97.8" cy="58.94" r="10.22"/>
      <rect class="cls-6" x="35.89" y="13.52" width="62.71" height="85.01" rx="27.87" ry="27.87"/>
      <path class="cls-3" d="M70.73,13.52h-6.97c-.76,0-1.52.04-2.26.1,14.33,1.15,25.61,13.14,25.61,27.77v29.27c0,14.63-11.27,26.62-25.61,27.77.75.06,1.5.1,2.26.1h6.97c15.39,0,27.87-12.48,27.87-27.87v-29.27c0-15.39-12.48-27.87-27.87-27.87Z"/>
      <path class="cls-2" d="M70.77,13.05h-7.05c-15.57,0-28.19,12.62-28.19,28.19v20.43h4.17v-9.16l3.52-2.47.7-17.58c8.87,1.4,16.8,1.56,23.46,1.15,6.66.41,14.59.25,23.46-1.15l.7,17.58,3.52,2.47v9.16h3.88v-20.43c0-15.57-12.62-28.19-28.19-28.19Z"/>
      <polygon class="cls-1" points="66.68 54.27 66.68 74.35 72.98 74.35 66.68 54.27"/>
      <path class="cls-2" d="M52.38,57.39c0,1.95.76,3.53,1.69,3.53s1.69-1.58,1.69-3.53-.76-3.53-1.69-3.53-1.69,1.58-1.69,3.53Z"/>
      <path class="cls-2" d="M76.38,57.39c0,1.95.76,3.53,1.69,3.53s1.69-1.58,1.69-3.53-.76-3.53-1.69-3.53-1.69,1.58-1.69,3.53Z"/>
      <path class="cls-2" d="M46.17,48.21s.06-.31.3-.79c.23-.48.63-1.13,1.26-1.77.31-.33.68-.65,1.1-.96.42-.31.89-.59,1.41-.85.52-.23,1.07-.48,1.67-.61.3-.07.59-.17.9-.2l.93-.1c.62-.07,1.25.02,1.85.07.61.06,1.18.26,1.74.41.54.18,1.04.45,1.5.68.47.22.84.57,1.19.83.35.29.66.54.89.84.24.28.42.54.58.76.3.43.44.7.44.7,0,0-.33.01-.84-.02-.25-.02-.56-.03-.89-.07-.32-.05-.7-.05-1.09-.08-.39-.01-.78-.11-1.21-.1-.42,0-.85-.05-1.28-.07-.44.02-.87-.02-1.31-.01-.44.05-.88-.02-1.32.06-.44.02-.88.05-1.32.11-.44.03-.87.12-1.31.16-.43.08-.86.13-1.27.22-.41.08-.82.15-1.19.23-.76.15-1.43.3-1.93.4-.49.1-.8.17-.8.17Z"/>
      <path class="cls-2" d="M87.55,45.7s-.1.31-.38.75c-.28.45-.74,1.06-1.43,1.64-.34.3-.74.58-1.19.85-.45.27-.95.5-1.49.7-.54.17-1.12.37-1.72.43-.3.04-.61.1-.92.11h-.93c-.62,0-1.24-.14-1.84-.25-.6-.13-1.15-.38-1.68-.58-.52-.24-.98-.55-1.42-.83-.44-.27-.78-.65-1.1-.95-.31-.32-.6-.6-.8-.92-.21-.3-.37-.58-.5-.81-.26-.46-.36-.74-.36-.74,0,0,.33.02.83.1.25.04.55.09.87.16.31.09.69.12,1.08.19.39.05.77.19,1.19.22.42.05.84.14,1.27.2.44.02.87.11,1.3.15.44,0,.88.11,1.32.08.44.03.88.04,1.32.03.44.02.88-.03,1.32-.03.43-.03.87-.05,1.28-.09.42-.04.83-.06,1.21-.11.77-.07,1.45-.15,1.96-.2.5-.05.81-.09.81-.09Z"/>
      <path class="cls-2" d="M55.78,77.84s.32.19.85.54c.26.19.61.36.97.57.36.22.79.42,1.27.64.46.24,1,.42,1.55.65.55.21,1.16.38,1.77.58.62.17,1.26.33,1.93.44.66.15,1.34.21,2.01.31.68.04,1.36.13,2.03.12.67.02,1.33,0,1.97-.03.63-.07,1.26-.11,1.84-.21.58-.12,1.14-.19,1.64-.34.51-.12.97-.25,1.37-.41.4-.14.78-.25,1.05-.39.57-.25.93-.39.93-.39,0,0-.24.27-.71.72-.23.24-.54.48-.91.74-.19.13-.39.27-.6.42-.23.12-.46.25-.71.38-.49.29-1.07.5-1.68.72-.61.21-1.28.38-1.98.51-.7.1-1.43.23-2.18.23-.75.06-1.5-.03-2.26-.07-.75-.12-1.5-.2-2.22-.41-.73-.15-1.41-.43-2.08-.67-.66-.27-1.27-.57-1.83-.89-.56-.33-1.08-.65-1.51-1.02-.22-.18-.43-.34-.63-.5-.19-.18-.36-.36-.52-.52-.33-.33-.59-.61-.77-.88-.38-.52-.58-.83-.58-.83Z"/>
      <path class="cls-1" d="M77.19,104.55h-22c-1.13,0-2.24.06-3.34.15,2.47,5.46,7.96,9.26,14.34,9.26s11.87-3.8,14.34-9.26c-1.1-.09-2.21-.15-3.34-.15Z"/>
      <path class="cls-2" d="M41.17,33.26c0,3.73,3.02,6.76,6.76,6.76s6.76-3.02,6.76-6.76-3.02-6.76-6.76-6.76-6.76,3.02-6.76,6.76Z"/>
      <path class="cls-2" d="M54.02,33.26c0,3.73,3.02,6.76,6.76,6.76s6.76-3.02,6.76-6.76-3.02-6.76-6.76-6.76-6.76,3.02-6.76,6.76Z"/>
      <path class="cls-2" d="M67.09,33.26c0,3.73,3.02,6.76,6.76,6.76s6.76-3.02,6.76-6.76-3.02-6.76-6.76-6.76-6.76,3.02-6.76,6.76Z"/>
      <path class="cls-2" d="M80.16,33.26c0,3.73,3.02,6.76,6.76,6.76s6.76-3.02,6.76-6.76-3.02-6.76-6.76-6.76-6.76,3.02-6.76,6.76Z"/>
      <path class="cls-4" d="M109.79,32.88c0-5.01-3.48-9.21-8.15-10.33.58-1.4.9-2.94.9-4.55,0-6.63-5.38-12.01-12.01-12.01-3.74,0-7.08,1.71-9.28,4.39-1.15-5.43-5.65-9.6-11.24-10.29,2.86,3.47,4.39,8.19,3.89,12.33,0,.01,0,.02,0,.04,5.12,1.19,8.99,5.92,10.45,11.02.16.06.33.13.49.21.63.32,1.24.7,1.81,1.12.34.2.67.42.95.68,1.08,1.04,1.42,1.36,2.03,2.45,1.15,1.82,1.71,3.96,1.28,6.25-.46,2.45-1.73,4.44-3.71,5.8,1.26-.08,2.81-.67,3.74-1.45.21.3-.02,1.04.22,1.31l.41,10.18,3.52,2.47v9.16h3.88l.18-12.83c2.24.15,4.25,1.32,5.79,2.87.54-.97.86-2.26.86-3.46,0-2.25-1.11-4.24-2.8-5.47,3.97-1.54,6.8-5.39,6.8-9.91Z"/>
    </g>
  </g>
</svg>