<?xml version="1.0" encoding="UTF-8"?>
<svg id="Layer_2" data-name="Layer 2" xmlns="http://www.w3.org/2000/svg" xmlns:xlink="http://www.w3.org/1999/xlink" viewBox="0 0 132 132">
  <defs>
    <style>
      .cls-1 {
        fill: #5d5d5d;
      }

      .cls-1, .cls-2, .cls-3, .cls-4, .cls-5, .cls-6, .cls-7, .cls-8, .cls-9 {
        stroke-width: 0px;
      }

      .cls-2 {
        fill: #cab9ff;
      }

      .cls-10 {
        filter: url(#drop-shadow-1);
      }

      .cls-3 {
        fill: #f4ccb0;
      }

      .cls-4 {
        fill: #e0b699;
      }

      .cls-5 {
        fill: #c96e61;
      }

      .cls-6 {
        fill: #e28879;
      }

      .cls-7 {
        fill: #ffe0c7;
      }

      .cls-8 {
        fill: #fff;
      }

      .cls-9 {
        fill: #ffca62;
      }
    </style>
    <filter id="drop-shadow-1" filterUnits="userSpaceOnUse">
      <feOffset dx="4" dy="4"/>
      <feGaussianBlur result="blur" stdDeviation="2"/>
      <feFlood flood-color="#000" flood-opacity=".22"/>
      <feComposite in2="blur" operator="in"/>
      <feComposite in="SourceGraphic"/>
    </filter>
  </defs>
  <g id="objects">
    <g class="cls-10">
      <circle class="cls-2" cx="66" cy="66" r="66"/>
      <path class="cls-9" d="M66.24,132c17.59,0,33.55-6.89,45.38-18.11-6.98-11.71-19.76-19.56-34.38-19.56h-22c-14.62,0-27.41,7.85-34.38,19.56,11.83,11.21,27.8,18.11,45.38,18.11Z"/>
      <path class="cls-4" d="M73.74,94.61c0,4.36-3.53,7.89-7.89,7.89h0c-4.36,0-7.89-3.53-7.89-7.89v-19.23c0-4.36,3.53-7.89,7.89-7.89h0c4.36,0,7.89,3.53,7.89,7.89v19.23Z"/>
      <circle class="cls-3" cx="36.71" cy="48.81" r="10.22"/>
      <circle class="cls-3" cx="97.78" cy="48.81" r="10.22"/>
      <rect class="cls-7" x="35.94" y="3.31" width="62.71" height="85.01" rx="27.87" ry="27.87"/>
      <path class="cls-3" d="M70.78,3.31h-6.97c-.76,0-1.52.04-2.26.1,14.33,1.15,25.61,13.14,25.61,27.77v29.27c0,14.63-11.27,26.62-25.61,27.77.75.06,1.5.1,2.26.1h6.97c15.39,0,27.87-12.48,27.87-27.87v-29.27c0-15.39-12.48-27.87-27.87-27.87Z"/>
      <polygon class="cls-4" points="66.74 46.39 66.74 66.47 73.03 66.47 66.74 46.39"/>
      <path class="cls-1" d="M52.43,47.17c0,1.95.76,3.53,1.69,3.53s1.69-1.58,1.69-3.53-.76-3.53-1.69-3.53-1.69,1.58-1.69,3.53Z"/>
      <path class="cls-1" d="M76.43,47.17c0,1.95.76,3.53,1.69,3.53s1.69-1.58,1.69-3.53-.76-3.53-1.69-3.53-1.69,1.58-1.69,3.53Z"/>
      <path class="cls-6" d="M46.23,40s.07-.31.3-.79c.23-.48.63-1.13,1.26-1.77.31-.33.68-.65,1.1-.96.42-.31.89-.59,1.41-.85.52-.23,1.07-.48,1.67-.61.3-.07.59-.17.9-.2l.93-.1c.62-.07,1.25.02,1.85.07.61.06,1.18.26,1.74.41.54.18,1.04.45,1.5.68.47.22.84.57,1.19.83.35.29.66.54.89.84.24.28.42.54.58.76.3.43.44.7.44.7,0,0-.33.01-.84-.02-.25-.02-.56-.03-.89-.07-.32-.05-.7-.05-1.09-.08-.39-.01-.78-.11-1.21-.1-.42,0-.85-.05-1.28-.07-.44.02-.87-.02-1.31-.01-.44.05-.88-.02-1.32.06-.44.02-.88.05-1.32.11-.44.03-.87.12-1.31.16-.43.08-.86.13-1.27.22-.41.08-.82.15-1.19.23-.76.15-1.43.3-1.93.4-.49.1-.8.17-.8.17Z"/>
      <path class="cls-6" d="M71.6,39.19s.1-.31.38-.75c.28-.45.74-1.06,1.43-1.64.34-.3.74-.58,1.19-.85.45-.27.95-.5,1.49-.7.54-.17,1.12-.37,1.72-.43.3-.04.61-.1.92-.11h.93c.62,0,1.24.14,1.84.25.6.13,1.15.38,1.68.58.52.24.98.55,1.42.83.44.27.78.65,1.1.95.31.32.6.6.8.92.21.3.37.58.5.81.26.46.36.74.36.74,0,0-.33-.02-.83-.1-.25-.04-.55-.09-.87-.16-.31-.09-.69-.12-1.08-.19-.39-.05-.77-.19-1.19-.22-.42-.05-.84-.14-1.27-.2-.44-.02-.87-.11-1.3-.15-.44,0-.88-.11-1.32-.08-.44-.03-.88-.04-1.32-.03-.44-.02-.88.03-1.32.03-.43.03-.87.05-1.28.09-.42.04-.83.06-1.21.11-.77.07-1.45.15-1.96.2-.5.05-.81.09-.81.09Z"/>
      <path class="cls-4" d="M77.24,94.33h-22c-1.13,0-2.24.06-3.34.15,2.47,5.46,7.96,9.26,14.34,9.26s11.87-3.8,14.34-9.26c-1.1-.09-2.21-.15-3.34-.15Z"/>
      <path class="cls-6" d="M98.94,29.1c-.38-5.6-2.38-10.76-5.56-14.99-6.91-10.35-18.78-12.37-30.17-11.27-2.54.05-4.99.44-7.32,1.11-12.5,2.55-22.82,7.7-22.82,7.7l3.33,4.33-8.67,4c2.67,1.7,5.6,3.09,8.69,4.23-.39,1.57-.64,3.2-.76,4.87-.25,1.5-.39,3.04-.39,4.62v29.89c0,15.72,12.74,28.47,28.46,28.47h7.12c15.72,0,28.47-12.74,28.47-28.47v-29.89c0-1.57-.14-3.11-.39-4.62ZM70.48,67.67h-6.36c-11.5,0-21.21-4.18-24.36-13.39v-11.98l3.52-2.47.7-13.36c18.69,4.34,40.22,1.6,46.95.55l.67,12.8,3.52,2.47v11.05c-2.8,9.87-12.78,14.33-24.65,14.33Z"/>
      <path class="cls-5" d="M98.94,29.1c-.38-5.6-2.38-10.76-5.56-14.99-6.91-10.35-18.78-12.37-30.17-11.27-.39,0-.78.04-1.18.06,7.61.96,14.63,4.14,19.35,11.2,2.89,3.85,4.8,8.47,5.4,13.49,1.7-.21,3.11-.42,4.16-.58l.67,12.8,3.52,2.47v11.05c-1.28,4.5-4.05,7.86-7.81,10.2v.07c0,14.9-11.45,27.11-26.02,28.35.81.07,1.62.11,2.44.11h7.12c15.72,0,28.47-12.74,28.47-28.47v-29.89c0-1.57-.14-3.11-.39-4.62Z"/>
      <path class="cls-8" d="M54.55,70.87c.75,3.26,6.32,5.79,13.08,5.79s12.33-2.53,13.08-5.79h-26.16Z"/>
    </g>
  </g>
</svg>