<?xml version="1.0" encoding="UTF-8"?>
<svg id="Layer_2" data-name="Layer 2" xmlns="http://www.w3.org/2000/svg" xmlns:xlink="http://www.w3.org/1999/xlink" viewBox="0 0 132 132">
  <defs>
    <style>
      .cls-1 {
        fill: #5d5d5d;
      }

      .cls-1, .cls-2, .cls-3, .cls-4, .cls-5, .cls-6, .cls-7, .cls-8, .cls-9 {
        stroke-width: 0px;
      }

      .cls-10 {
        filter: url(#drop-shadow-1);
      }

      .cls-2 {
        fill: #5e5a6d;
      }

      .cls-3 {
        fill: #827e8d;
      }

      .cls-4 {
        fill: #efb789;
      }

      .cls-5 {
        fill: #dba379;
      }

      .cls-6 {
        fill: #e28879;
      }

      .cls-7 {
        fill: #fff;
      }

      .cls-8 {
        fill: #ffca62;
      }

      .cls-9 {
        fill: #ffc995;
      }
    </style>
    <filter id="drop-shadow-1" filterUnits="userSpaceOnUse">
      <feOffset dx="4" dy="4"/>
      <feGaussianBlur result="blur" stdDeviation="2"/>
      <feFlood flood-color="#000" flood-opacity=".22"/>
      <feComposite in2="blur" operator="in"/>
      <feComposite in="SourceGraphic"/>
    </filter>
  </defs>
  <g id="objects">
    <g class="cls-10">
      <circle class="cls-8" cx="66" cy="66" r="66"/>
      <path class="cls-3" d="M104.73,71.52c0,10.62-9.11,19.23-20.34,19.23h-34.07c-11.23,0-20.34-8.61-20.34-19.23v-30.53c0-10.62,9.11-19.23,20.34-19.23h34.07c11.23,0,20.34,8.61,20.34,19.23v30.53Z"/>
      <path class="cls-2" d="M84.39,21.75h-21.75c11.23,0,20.34,8.61,20.34,19.23v30.53c0,10.62-9.11,19.23-20.34,19.23h21.75c11.23,0,20.34-8.61,20.34-19.23v-30.53c0-10.62-9.11-19.23-20.34-19.23Z"/>
      <ellipse class="cls-3" cx="67.4" cy="38.67" rx="37.67" ry="37"/>
      <path class="cls-2" d="M74.54,2.34c7.54,6.77,12.28,16.5,12.28,27.33,0,20.43-16.86,37-37.67,37-2.44,0-4.83-.24-7.14-.67,6.7,6.01,15.61,9.67,25.39,9.67,20.8,0,37.67-16.57,37.67-37,0-18.04-13.14-33.05-30.53-36.33Z"/>
      <path class="cls-6" d="M66.24,132c17.59,0,33.55-6.89,45.38-18.11-6.98-11.71-19.76-19.56-34.38-19.56h-22c-14.62,0-27.41,7.85-34.38,19.56,11.83,11.21,27.8,18.11,45.38,18.11Z"/>
      <path class="cls-5" d="M73.74,94.61c0,4.36-3.53,7.89-7.89,7.89h0c-4.36,0-7.89-3.53-7.89-7.89v-19.23c0-4.36,3.53-7.89,7.89-7.89h0c4.36,0,7.89,3.53,7.89,7.89v19.23Z"/>
      <circle class="cls-4" cx="97.85" cy="48.73" r="8.72"/>
      <circle class="cls-4" cx="37.1" cy="48.73" r="8.72"/>
      <path class="cls-9" d="M93.36,26.57c-3.43-.13-6.23-5.48-9.63-6.24-2.56-.57-5.28,2.79-6.03.45-4.04.08-8.08.38-12.11,1-5.5.85-10.97,2.07-16.48,2.78-4.4.56-8.96.65-13.18,2.08v29.97c0,17.51,12.48,31.7,27.87,31.7h6.97c15.39,0,27.87-14.19,27.87-31.7v-27.88c-.37.04-.75.07-1.13.07-1.69,0-3.14-.93-4.16-2.23Z"/>
      <path class="cls-4" d="M93.06,21c-2.08-.08-4.94-3.71-7-4l1.09,39.62c0,16.64-11.27,30.28-25.61,31.59.75.07,1.5.11,2.26.11h6.97c15.39,0,27.87-14.19,27.87-31.7v-27.88c-.37.04-.75.07-1.13.07-1.69,0-3.44-6.5-4.45-7.8Z"/>
      <path class="cls-3" d="M70.82,2.83h-7.05c-15.57,0-28.19,12.62-28.19,28.19v20.43s2.92.09,5.14-8.95,3.26-20.25,3.26-20.25c8.87,1.4,16.8,1.56,23.46,1.15,6.66.41,14.59.25,23.46-1.15,0,0,1.31,15.37,2.33,21.25,1.25,7.25,5.78,7.95,5.78,7.95v-20.43c0-15.57-12.62-28.19-28.19-28.19Z"/>
      <polygon class="cls-4" points="67.56 56.14 67.56 64.05 71.73 62.33 67.56 56.14"/>
      <path class="cls-1" d="M54.12,51.84c0,1.95.76,3.53,1.69,3.53s1.69-1.58,1.69-3.53-.76-3.53-1.69-3.53-1.69,1.58-1.69,3.53Z"/>
      <path class="cls-1" d="M76.43,51.84c0,1.95.76,3.53,1.69,3.53s1.69-1.58,1.69-3.53-.76-3.53-1.69-3.53-1.69,1.58-1.69,3.53Z"/>
      <path class="cls-3" d="M46.23,42.67s.13-.25.43-.63c.3-.38.77-.91,1.43-1.43.32-.27.7-.53,1.12-.78.42-.25.88-.49,1.37-.69.5-.17,1.02-.4,1.58-.5.28-.06.55-.14.84-.17l.86-.08c.58-.07,1.16.01,1.72.04.57.04,1.1.22,1.63.31.52.13.99.35,1.44.53.46.16.83.44,1.2.65.36.22.69.41.94.64.26.21.48.42.66.58.35.33.54.53.54.53,0,0-.28-.06-.74-.19-.23-.07-.5-.14-.81-.24-.3-.12-.67-.17-1.04-.27-.38-.07-.77-.22-1.21-.28-.42-.07-.87-.14-1.34-.22-.47-.03-.94-.09-1.42-.11-.48.03-.97-.05-1.45.03-.49.02-.97.07-1.45.16-.48.06-.94.17-1.4.27-.44.13-.89.23-1.3.37-.41.15-.81.27-1.17.41-.72.28-1.33.55-1.76.75-.43.19-.68.33-.68.33Z"/>
      <path class="cls-3" d="M71.6,41.86s.15-.24.49-.59c.34-.35.85-.83,1.57-1.27.35-.24.75-.46,1.19-.66.44-.21.92-.4,1.43-.55.52-.12,1.05-.3,1.62-.34.28-.03.57-.08.85-.09h.87c.58,0,1.15.14,1.71.22.56.1,1.08.33,1.59.48.5.18.95.45,1.38.67.44.2.78.52,1.13.76.34.25.64.48.87.74.24.24.43.46.59.64.32.36.48.58.48.58,0,0-.27-.09-.71-.26-.22-.09-.49-.19-.78-.33-.29-.15-.64-.23-1.01-.37-.37-.11-.74-.3-1.17-.4-.42-.11-.85-.23-1.31-.36-.46-.08-.93-.18-1.4-.25-.48-.02-.96-.15-1.45-.12-.49-.03-.97-.03-1.46,0-.48,0-.96.07-1.42.12-.45.09-.91.14-1.33.24-.42.1-.83.18-1.2.29-.75.2-1.38.41-1.82.56-.45.15-.71.26-.71.26Z"/>
      <path class="cls-5" d="M66.24,109.5c10.56,0,20-4.69,26.41-12.09-4.74-1.98-9.95-3.08-15.41-3.08h-22c-5.46,0-10.67,1.1-15.41,3.08,6.41,7.4,15.85,12.09,26.41,12.09Z"/>
      <path class="cls-3" d="M67.27,15s4.6,20.33-30.53,22l4.39-21,26.14-1Z"/>
      <path class="cls-3" d="M64.93,15s-4.6,20.33,30.53,22l-4.39-21-26.14-1Z"/>
      <path class="cls-7" d="M57.79,69.55c4.83,4.79,13.74,5.03,18.16-.04"/>
      <path class="cls-2" d="M76.07,3.33c6.44,5.11,10.58,12.99,10.58,21.85v10.89c1.75.3,3.64.54,5.67.72.3,2.62.61,5.04.9,6.71,1.25,7.25,5.78,7.95,5.78,7.95v-20.43c0-13.77-9.88-25.23-22.93-27.69Z"/>
    </g>
  </g>
</svg>