<?xml version="1.0" encoding="UTF-8"?>
<svg id="Layer_2" data-name="Layer 2" xmlns="http://www.w3.org/2000/svg" xmlns:xlink="http://www.w3.org/1999/xlink" viewBox="0 0 132 154.93">
  <defs>
    <style>
      .cls-1 {
        fill: #916a4d;
      }

      .cls-1, .cls-2, .cls-3, .cls-4, .cls-5, .cls-6, .cls-7, .cls-8, .cls-9 {
        stroke-width: 0px;
      }

      .cls-2 {
        fill: #5d5d5d;
      }

      .cls-3 {
        fill: #9b7559;
      }

      .cls-4 {
        fill: #42403f;
      }

      .cls-10 {
        filter: url(#drop-shadow-1);
      }

      .cls-5 {
        fill: #8e83c0;
      }

      .cls-6 {
        fill: #7b74aa;
      }

      .cls-7 {
        fill: #af8969;
      }

      .cls-8 {
        fill: #fff;
      }

      .cls-9 {
        fill: #ffca62;
      }
    </style>
    <filter id="drop-shadow-1" filterUnits="userSpaceOnUse">
      <feOffset dx="4" dy="4"/>
      <feGaussianBlur result="blur" stdDeviation="2"/>
      <feFlood flood-color="#000" flood-opacity=".22"/>
      <feComposite in2="blur" operator="in"/>
      <feComposite in="SourceGraphic"/>
    </filter>
  </defs>
  <g id="objects">
    <g class="cls-10">
      <circle class="cls-9" cx="66" cy="88.93" r="66"/>
      <circle class="cls-2" cx="108.23" cy="66.99" r="8.71"/>
      <circle class="cls-2" cx="101.48" cy="80.24" r="8.71"/>
      <circle class="cls-2" cx="108.39" cy="47.16" r="13.71"/>
      <circle class="cls-2" cx="97.26" cy="27.97" r="15.49"/>
      <path class="cls-4" d="M122.1,47.16c0-6.47-4.48-11.88-10.51-13.32.74-1.81,1.16-3.79,1.16-5.87,0-8.55-6.93-15.49-15.49-15.49-2.93,0-5.66.83-8,2.24-2.49-7.37-8.84-12.95-16.63-14.37,7.7,4.2,12.46,14.21,11.44,22.5-.36,2.91-1.2,5.45-2.4,7.68,3.75,4.78,5.76,11.13,5.18,16.74.14,1.45.14,2.89-.03,4.28-1.26,2.07-1.99,4.49-1.99,7.09,0,6.43,4.43,11.8,10.39,13.29.39.49.78.9,1.17,1.22-2.2,1.58-3.64,4.16-3.64,7.07,0,4.81,3.9,8.71,8.71,8.71s8.71-3.9,8.71-8.71c0-1.68-.48-3.24-1.3-4.57,4.5-.34,8.05-4.09,8.05-8.68,0-2.9-1.43-5.47-3.61-7.05,5.13-1.99,8.77-6.95,8.77-12.78Z"/>
      <circle class="cls-2" cx="24.71" cy="66.99" r="8.71"/>
      <circle class="cls-2" cx="24.55" cy="47.16" r="13.71"/>
      <circle class="cls-2" cx="37.8" cy="58.66" r="13.71"/>
      <circle class="cls-2" cx="31.98" cy="80.24" r="8.71"/>
      <circle class="cls-2" cx="40.67" cy="28.46" r="16.94" transform="translate(-5.42 10.03) rotate(-13.19)"/>
      <circle class="cls-2" cx="68.73" cy="21.69" r="21.69" transform="translate(4.79 54.95) rotate(-45)"/>
      <path class="cls-4" d="M68.82,0c-1.14,0-2.25.09-3.34.25,10.74,1.61,18.97,10.88,18.97,22.06s-8.23,20.45-18.97,22.06c1.09.16,2.21.25,3.34.25,12.32,0,22.31-9.99,22.31-22.31S81.14,0,68.82,0Z"/>
      <path class="cls-5" d="M66,154.93c17.59,0,33.55-6.89,45.38-18.11-6.98-11.71-19.76-19.56-34.38-19.56h-22c-14.62,0-27.41,7.85-34.38,19.56,11.83,11.21,27.8,18.11,45.38,18.11Z"/>
      <path class="cls-1" d="M73.5,117.55c0,4.36-3.53,7.89-7.89,7.89h0c-4.36,0-7.89-3.53-7.89-7.89v-19.23c0-4.36,3.53-7.89,7.89-7.89h0c4.36,0,7.89,3.53,7.89,7.89v19.23Z"/>
      <circle class="cls-3" cx="97.62" cy="71.66" r="8.72"/>
      <circle class="cls-3" cx="36.87" cy="71.66" r="8.72"/>
      <path class="cls-7" d="M93.12,49.51c-3.43-.13-6.83-.5-10.23-1.25-2.56-.57-4.68-2.2-5.42-4.53-4.04.08-8.08.38-12.11,1-5.5.85-10.97,2.07-16.48,2.78-4.4.56-8.96.65-13.18,2.08v29.97c0,17.51,12.48,31.7,27.87,31.7h6.97c15.39,0,27.87-14.19,27.87-31.7v-27.88c-.37.04-.75.07-1.13.07-1.69,0-3.14-.93-4.16-2.23Z"/>
      <path class="cls-3" d="M93.12,49.51c-2.08-.08-4.15-.25-6.21-.53v30.58c0,16.64-11.27,30.28-25.61,31.59.75.07,1.5.11,2.26.11h6.97c15.39,0,27.87-14.19,27.87-31.7v-27.88c-.37.04-.75.07-1.13.07-1.69,0-3.14-.93-4.16-2.23Z"/>
      <path class="cls-2" d="M70.58,25.77h-7.05c-15.57,0-28.19,12.62-28.19,28.19v20.43s2.92.09,5.14-8.95c2.22-9.04,3.26-20.25,3.26-20.25,8.87,1.4,16.8,1.56,23.46,1.15,6.66.41,14.59.25,23.46-1.15,0,0,1.31,15.37,2.33,21.25,1.25,7.25,5.78,7.95,5.78,7.95v-20.43c0-15.57-12.62-28.19-28.19-28.19Z"/>
      <polygon class="cls-1" points="65.99 72.74 65.99 85.32 72.29 85.32 65.99 72.74"/>
      <path class="cls-2" d="M53.88,70.11c0,1.95.76,3.53,1.69,3.53s1.69-1.58,1.69-3.53-.76-3.53-1.69-3.53-1.69,1.58-1.69,3.53Z"/>
      <ellipse class="cls-2" cx="77.88" cy="70.11" rx="1.69" ry="3.53"/>
      <path class="cls-2" d="M45.99,60.93s.13-.25.43-.63c.3-.38.77-.91,1.43-1.43.32-.27.7-.53,1.12-.78.42-.25.88-.49,1.37-.69.5-.17,1.02-.4,1.58-.5.28-.06.55-.14.84-.17l.86-.08c.58-.07,1.16.01,1.72.04.57.04,1.1.22,1.63.31.52.13.99.35,1.44.53.46.16.83.44,1.2.65.36.22.69.41.94.64.26.21.48.42.66.58.35.33.54.53.54.53,0,0-.28-.06-.74-.19-.23-.07-.5-.14-.81-.24-.3-.12-.67-.17-1.04-.27-.38-.07-.77-.22-1.21-.28-.42-.07-.87-.14-1.34-.22-.47-.03-.94-.09-1.42-.11-.48.03-.97-.05-1.45.03-.49.02-.97.07-1.45.16-.48.06-.94.17-1.4.27-.44.13-.89.23-1.3.37-.41.15-.81.27-1.17.41-.72.28-1.33.55-1.76.75-.43.19-.68.33-.68.33Z"/>
      <path class="cls-2" d="M71.36,60.13s.15-.24.49-.59c.34-.35.85-.83,1.57-1.27.35-.24.75-.46,1.19-.66.44-.21.92-.4,1.43-.55.52-.12,1.05-.3,1.62-.34.28-.03.57-.08.85-.09h.87c.58,0,1.15.14,1.71.22.56.1,1.08.33,1.59.48.5.18.95.45,1.38.67.44.2.78.52,1.13.76.34.25.64.48.87.74.24.24.43.46.59.64.32.36.48.58.48.58,0,0-.27-.09-.71-.26-.22-.09-.49-.19-.78-.33-.29-.15-.64-.23-1.01-.37-.37-.11-.74-.3-1.17-.4-.42-.11-.85-.23-1.31-.36-.46-.08-.93-.18-1.4-.25-.48-.02-.96-.15-1.45-.12-.49-.03-.97-.03-1.46,0-.48,0-.96.07-1.42.12-.45.09-.91.14-1.33.24-.42.1-.83.18-1.2.29-.75.2-1.38.41-1.82.56-.45.15-.71.26-.71.26Z"/>
      <path class="cls-8" d="M52.67,90.18c7.62,9.63,21.14,10.49,27.53.74"/>
      <path class="cls-2" d="M40.99,45.98c0,3.73,3.02,6.76,6.76,6.76s6.76-3.02,6.76-6.76-3.02-6.76-6.76-6.76-6.76,3.02-6.76,6.76Z"/>
      <path class="cls-2" d="M53.84,45.98c0,3.73,3.02,6.76,6.76,6.76s6.76-3.02,6.76-6.76-3.02-6.76-6.76-6.76-6.76,3.02-6.76,6.76Z"/>
      <path class="cls-2" d="M66.91,45.98c0,3.73,3.02,6.76,6.76,6.76s6.76-3.02,6.76-6.76-3.02-6.76-6.76-6.76-6.76,3.02-6.76,6.76Z"/>
      <path class="cls-2" d="M79.98,45.98c0,3.73,3.02,6.76,6.76,6.76s6.76-3.02,6.76-6.76-3.02-6.76-6.76-6.76-6.76,3.02-6.76,6.76Z"/>
      <path class="cls-4" d="M86.08,30.42c-.55,1.95-1.33,3.71-2.32,5.28,2.44,4.33,3.62,9.38,3.06,13.91-.13,1.08-.35,2.1-.61,3.09.17.01.34.03.52.03,1.71,0,3.27-.64,4.46-1.69.48,4.99,1.19,11.88,1.79,15.39,1.25,7.25,5.78,7.95,5.78,7.95v-20.43c0-9.84-5.04-18.49-12.68-23.53Z"/>
      <path class="cls-1" d="M66,132.43c10.56,0,20-4.69,26.41-12.09-4.74-1.98-9.95-3.08-15.41-3.08h-22c-5.46,0-10.67,1.1-15.41,3.08,6.41,7.4,15.85,12.09,26.41,12.09Z"/>
      <path class="cls-5" d="M66.99,36.43c16.19,0,29.56,12.02,31.69,27.62.2-1.43.31-2.89.31-4.38,0-17.67-14.33-32-32-32s-32,14.33-32,32c0,1.49.11,2.94.31,4.38,2.13-15.6,15.51-27.62,31.69-27.62Z"/>
      <path class="cls-5" d="M89.16,37.6s-9.17-.83-7.5-12.83c0,0,13.67,3.83,7.5,12.83Z"/>
      <path class="cls-5" d="M88.75,36.92s5.85-7.1,14.83,1.04c0,0-10.87,9.13-14.83-1.04Z"/>
      <path class="cls-6" d="M103.58,37.96c-6.31-5.73-11.08-3.91-13.35-2.33,2.35-5.8-3.88-9.08-6.96-10.3,2.32,4.07,3.65,8.77,3.65,13.79v4.28c6.28,5,10.63,12.32,11.77,20.66.2-1.43.31-2.89.31-4.38,0-6.73-2.08-12.97-5.63-18.13,4.62,1.1,10.22-3.6,10.22-3.6Z"/>
      <path class="cls-9" d="M29.99,79.6c0,1.29,1.04,2.33,2.33,2.33s2.33-1.04,2.33-2.33-1.04-2.33-2.33-2.33-2.33,1.04-2.33,2.33Z"/>
      <path class="cls-9" d="M99.66,79.6c0,1.29,1.04,2.33,2.33,2.33s2.33-1.04,2.33-2.33-1.04-2.33-2.33-2.33-2.33,1.04-2.33,2.33Z"/>
    </g>
  </g>
</svg>