<?xml version="1.0" encoding="UTF-8"?>
<svg id="Layer_2" data-name="Layer 2" xmlns="http://www.w3.org/2000/svg" xmlns:xlink="http://www.w3.org/1999/xlink" viewBox="0 0 132 132">
  <defs>
    <style>
      .cls-1 {
        fill: #5d5d5d;
      }

      .cls-1, .cls-2, .cls-3, .cls-4, .cls-5, .cls-6, .cls-7, .cls-8 {
        stroke-width: 0px;
      }

      .cls-2 {
        fill: #cab9ff;
      }

      .cls-9 {
        filter: url(#drop-shadow-1);
      }

      .cls-3 {
        fill: #f4ccb0;
      }

      .cls-4 {
        fill: #e0b699;
      }

      .cls-5 {
        fill: #c96e61;
      }

      .cls-6 {
        fill: #e28879;
      }

      .cls-7 {
        fill: #ffe0c7;
      }

      .cls-8 {
        fill: #ffca62;
      }
    </style>
    <filter id="drop-shadow-1" filterUnits="userSpaceOnUse">
      <feOffset dx="4" dy="4"/>
      <feGaussianBlur result="blur" stdDeviation="2"/>
      <feFlood flood-color="#000" flood-opacity=".22"/>
      <feComposite in2="blur" operator="in"/>
      <feComposite in="SourceGraphic"/>
    </filter>
  </defs>
  <g id="objects">
    <g class="cls-9">
      <circle class="cls-2" cx="66" cy="66" r="66"/>
      <ellipse class="cls-6" cx="66.69" cy="38.67" rx="37.67" ry="37"/>
      <path class="cls-5" d="M70.13,1.83c11.06,6.45,18.48,18.29,18.48,31.84,0,20.43-16.86,37-37.67,37-1.16,0-2.3-.06-3.43-.16,5.62,3.27,12.18,5.16,19.18,5.16,20.8,0,37.67-16.57,37.67-37,0-19.3-15.04-35.14-34.23-36.84Z"/>
      <path class="cls-5" d="M95.03,15s16.33,13,10.67,44c-4.49,24.58,27.77,27.57.67,54.67-21.33,21.33-40.67-2.67-40.67-2.67l1-100,28.33,4Z"/>
      <path class="cls-6" d="M37.36,15.67s-17,16.33-11.33,47.33c4.49,24.58-27.83,24.57-.73,51.67,21.33,21.33,40.67-2.67,40.67-2.67l-1-100-27.61,3.67Z"/>
      <path class="cls-8" d="M65.53,132c17.59,0,33.55-6.89,45.38-18.11-6.98-11.71-19.76-19.56-34.38-19.56h-22c-14.62,0-27.41,7.85-34.38,19.56,11.83,11.21,27.8,18.11,45.38,18.11Z"/>
      <path class="cls-4" d="M73.03,94.61c0,4.36-3.53,7.89-7.89,7.89h0c-4.36,0-7.89-3.53-7.89-7.89v-19.23c0-4.36,3.53-7.89,7.89-7.89h0c4.36,0,7.89,3.53,7.89,7.89v19.23Z"/>
      <circle class="cls-3" cx="97.15" cy="48.73" r="8.72"/>
      <circle class="cls-3" cx="36.4" cy="48.73" r="8.72"/>
      <path class="cls-7" d="M92.66,26.57c-3.43-.13-6.23-5.48-9.63-6.24-2.56-.57-5.28,2.79-6.03.45-4.04.08-8.08.38-12.11,1-5.5.85-10.97,2.07-16.48,2.78-4.4.56-8.96.65-13.18,2.08v29.97c0,17.51,12.48,31.7,27.87,31.7h6.97c15.39,0,27.87-14.19,27.87-31.7v-27.88c-.37.04-.75.07-1.13.07-1.69,0-3.14-.93-4.16-2.23Z"/>
      <path class="cls-3" d="M92.36,21c-2.08-.08-4.94-3.71-7-4l1.09,39.62c0,16.64-11.27,30.28-25.61,31.59.75.07,1.5.11,2.26.11h6.97c15.39,0,27.87-14.19,27.87-31.7v-27.88c-.37.04-.75.07-1.13.07-1.69,0-3.44-6.5-4.45-7.8Z"/>
      <polygon class="cls-4" points="66.86 56.14 66.86 64.05 71.03 62.33 66.86 56.14"/>
      <path class="cls-1" d="M53.42,51.84c0,1.95.76,3.53,1.69,3.53s1.69-1.58,1.69-3.53-.76-3.53-1.69-3.53-1.69,1.58-1.69,3.53Z"/>
      <ellipse class="cls-1" cx="77.42" cy="51.84" rx="1.69" ry="3.53"/>
      <path class="cls-6" d="M45.52,42.67s.1-.28.37-.71c.27-.43.7-1.01,1.34-1.6.32-.3.69-.59,1.11-.87.42-.28.89-.53,1.39-.77.51-.21,1.05-.44,1.63-.55.29-.06.57-.15.87-.19l.9-.09c.6-.07,1.2.01,1.79.05.59.06,1.14.23,1.68.36.53.16,1.01.4,1.47.6.46.19.84.51,1.2.74.35.25.67.48.91.75.25.24.45.48.62.67.33.38.49.62.49.62,0,0-.3-.02-.79-.1-.24-.04-.53-.08-.85-.16-.31-.09-.69-.1-1.07-.17-.39-.04-.78-.17-1.21-.19-.42-.05-.85-.09-1.31-.15-.45,0-.91-.06-1.37-.06-.46.04-.93-.04-1.39.04-.93.03-1.85.19-2.74.35-.44.1-.87.18-1.28.29-.41.11-.81.21-1.18.32-.75.2-1.38.42-1.84.57-.47.16-.74.25-.74.25Z"/>
      <path class="cls-6" d="M70.89,41.86s.12-.27.44-.67c.31-.4.8-.94,1.5-1.46.35-.27.75-.51,1.19-.75.44-.24.94-.44,1.46-.62.53-.15,1.09-.33,1.67-.38.29-.03.59-.09.88-.1h.9c.6,0,1.19.14,1.77.24.58.11,1.12.34,1.64.53.51.21.97.5,1.4.75.44.24.78.59,1.11.86.33.29.62.54.83.83.23.27.4.52.55.72.29.41.42.66.42.66,0,0-.3-.05-.77-.18-.23-.07-.52-.14-.82-.25-.3-.12-.67-.17-1.04-.27-.38-.08-.75-.25-1.18-.31-.41-.09-.84-.18-1.29-.28-.45-.05-.89-.15-1.35-.2-.46,0-.92-.13-1.38-.1-.93-.06-1.86,0-2.76.07-.44.06-.89.09-1.31.16-.42.07-.83.12-1.2.2-.76.13-1.42.28-1.89.38-.48.11-.76.17-.76.17Z"/>
      <path class="cls-4" d="M65.53,109.5c10.56,0,20-4.69,26.41-12.09-4.74-1.98-9.95-3.08-15.41-3.08h-22c-5.46,0-10.67,1.1-15.41,3.08,6.41,7.4,15.85,12.09,26.41,12.09Z"/>
      <path class="cls-4" d="M57.08,69.55s.29.15.78.43c.24.16.55.3.88.46.33.17.7.34,1.14.5.41.19.88.33,1.37.49.48.19,1.03.25,1.55.42.55.09,1.11.21,1.68.26.57.08,1.16.09,1.74.12.58-.02,1.17,0,1.74-.07.58-.04,1.13-.13,1.68-.23.53-.13,1.06-.23,1.54-.4.48-.17.95-.31,1.35-.51.42-.17.8-.35,1.12-.54.33-.18.63-.33.85-.49.46-.3.75-.47.75-.47,0,0-.16.28-.47.76-.15.25-.37.52-.65.81-.14.15-.29.31-.44.47-.17.15-.36.29-.56.45-.38.33-.85.62-1.35.9-.5.28-1.07.52-1.67.73-.61.18-1.23.38-1.9.45-.66.13-1.33.12-2.01.15-.67-.04-1.35-.06-2-.2-.66-.08-1.28-.32-1.88-.48-.58-.24-1.16-.44-1.65-.74-.25-.14-.5-.27-.73-.41-.22-.15-.43-.31-.63-.46-.41-.28-.75-.6-1.03-.89-.3-.28-.52-.53-.68-.77-.34-.45-.52-.72-.52-.72Z"/>
      <path class="cls-6" d="M70.11,2.83h-7.05c-15.57,0-28.19,12.62-28.19,28.19v20.43s2.92.09,5.14-8.95c.45-1.85.86-3.8,1.22-5.72,28.06-1.53,38.33-8.12,41.94-13.66.04,0,.09,0,.13-.01,1.14,6.36,4.13,18.54,11.04,25.34,1.76,2.65,3.95,3,3.95,3v-20.43c0-15.57-12.62-28.19-28.19-28.19Z"/>
      <path class="cls-5" d="M70.13,1.83c9.02,4.61,16.16,15.03,16.16,25.86v6.87c1.77,5.03,4.35,10.24,8.06,13.9,1.76,2.65,3.95,3,3.95,3v-11.37l3.65-.5-3.65-8.56c1.06-15.77-13.05-28.68-28.17-29.19Z"/>
    </g>
  </g>
</svg>